<svg xmlns="http://www.w3.org/2000/svg" width="568" height="321.001" viewBox="0 0 568 321.001">
  <g id="Group_10" data-name="Group 10" transform="translate(-1244 -360)">
    <path id="Union_4" data-name="Union 4" d="M6904.47,6457H6746.5a10.5,10.5,0,1,1,0-21h94.84a160.95,160.95,0,0,1-24.863-18H6658.5a10.5,10.5,0,1,1,0-21h138.052q-3.466-4.381-6.625-9H6720a4,4,0,1,1,0-8h64.8a160.539,160.539,0,0,1,137.7-243q2.809,0,5.592.1a10.4,10.4,0,0,1,1.409-.094h166a10.5,10.5,0,0,1,0,21H7001.93a160.727,160.727,0,0,1,24.278,17H7166.5a10.5,10.5,0,0,1,0,21H7046.836q3.575,4.374,6.844,9H7118a4,4,0,0,1,0,8h-59.02A160.534,160.534,0,0,1,6922.5,6458,162.238,162.238,0,0,1,6904.47,6457ZM6698,6447a11,11,0,1,1,11,11A11,11,0,0,1,6698,6447Zm-3-63a4,4,0,1,1,4,4A4,4,0,0,1,6695,6384Zm440-175a4,4,0,1,1,4,4A4,4,0,0,1,7135,6209Zm59-24a11,11,0,1,1,11,11A11,11,0,0,1,7194,6185Z" transform="translate(-5404 -5777)" fill="#08fdd8"/>
    <text id="Contact_Me" data-name="Contact Me" transform="translate(1449 529)" fill="#181818" font-size="24" font-family="Poppins-Medium, Poppins" font-weight="500"><tspan x="0" y="0">Contact Me</tspan></text>
  </g>
</svg>
