<svg xmlns="http://www.w3.org/2000/svg" width="1070.573" height="1092.429" viewBox="0 0 1070.573 1092.429">
  <path id="Union_5" data-name="Union 5" d="M6918.943,6653.833H6780.41a13,13,0,0,1-13-13v-2.495a13,13,0,0,1,13-13h119.313l-16.475-24.425H6661a13,13,0,0,1-13-13v-2.5a13,13,0,0,1,13-13h203.028l-6.625-9.821.172-.116q-.837-1.132-1.66-2.274H6745.7a5.429,5.429,0,0,1,0-10.857h102.886c-61.77-97.648-35.041-227.358,61.391-292.4a213.483,213.483,0,0,1,114.539-36.63,12.99,12.99,0,0,1,4.213-.7h227.744a13,13,0,0,1,13,13v2.495a13,13,0,0,1-13,13H7135.695a213.076,213.076,0,0,1,33.047,23.069h184.069a13,13,0,0,1,13,13v2.493a13,13,0,0,1-13,13H7196.548q4.767,5.894,9.184,12.211h80.021a5.428,5.428,0,0,1,0,10.855h-72.665l505.484,749.411-355.657,239.893ZM7212.89,6322.82l.11-.075h-.156Zm-497.044,317.444a14.926,14.926,0,1,1,14.925,14.927A14.926,14.926,0,0,1,6715.846,6640.264Zm-4.072-85.484a5.429,5.429,0,1,1,5.428,5.428A5.43,5.43,0,0,1,6711.774,6554.78Zm597.047-237.462a5.427,5.427,0,1,1,5.426,5.428A5.426,5.426,0,0,1,7308.822,6317.317Zm80.057-32.566a14.927,14.927,0,1,1,14.925,14.927A14.927,14.927,0,0,1,7388.878,6284.751Z" transform="translate(-6647.999 -6219.62)" fill="#373737"/>
</svg>
